<?xml version="1.0" encoding="utf-8"?>
<!-- Generator: Adobe Illustrator 23.1.0, SVG Export Plug-In . SVG Version: 6.00 Build 0)  -->
<svg version="1.1" id="Layer_1" xmlns="http://www.w3.org/2000/svg" xmlns:xlink="http://www.w3.org/1999/xlink" x="0px" y="0px"
	 viewBox="0 0 140.5 22.7" style="enable-background:new 0 0 140.5 22.7;" xml:space="preserve">
<style type="text/css">
	.st0{clip-path:url(#SVGID_2_);}
	.st1{fill:url(#sphere_1_);}
	.st2{fill:url(#SVGID_3_);}
</style>
<g>
	<path d="M7.1,12.4c0,0.7-0.1,1.2-0.3,1.8c-0.2,0.5-0.5,1-0.8,1.3c-0.4,0.4-0.8,0.6-1.3,0.8s-1,0.3-1.6,0.3H0V8.1h3.1
		c0.6,0,1.2,0.1,1.6,0.3C5.2,8.6,5.7,8.9,6,9.3c0.4,0.4,0.6,0.8,0.8,1.3C7,11.1,7.1,11.7,7.1,12.4z M6.5,12.4c0-0.6-0.1-1.1-0.2-1.6
		S5.9,9.9,5.6,9.6S4.9,9,4.5,8.9S3.6,8.6,3.1,8.6H0.6v7.5h2.5c0.5,0,1-0.1,1.4-0.3s0.8-0.4,1.1-0.7c0.3-0.3,0.5-0.7,0.7-1.2
		S6.5,13,6.5,12.4z"/>
	<path d="M15.3,16.6h-0.5c-0.1,0-0.1,0-0.1,0s-0.1-0.1-0.1-0.1l-1-2.5H9.5l-1,2.5c0,0,0,0.1-0.1,0.1c0,0-0.1,0-0.1,0H7.8l3.5-8.5
		h0.6L15.3,16.6z M9.6,13.5h3.8l-1.7-4.3c0-0.1-0.1-0.1-0.1-0.2c0-0.1-0.1-0.2-0.1-0.3c0,0.1-0.1,0.2-0.1,0.3c0,0.1-0.1,0.2-0.1,0.2
		L9.6,13.5z"/>
	<path d="M17.1,8.2c0,0,0.1,0,0.1,0.1l5.5,7.4c0-0.1,0-0.2,0-0.3V8.1h0.5v8.5h-0.3c-0.1,0-0.2,0-0.2-0.1l-5.5-7.4c0,0.1,0,0.2,0,0.3
		v7.1h-0.5V8.1H17C17,8.1,17.1,8.1,17.1,8.2z"/>
	<path d="M26.6,16.6H26V8.1h0.6V16.6z"/>
	<path d="M34.4,8.1v0.5H30v3.4h3.7v0.5H30v3.5h4.5v0.5h-5.1V8.1H34.4z"/>
	<path d="M37,16.1h4v0.5h-4.6V8.1H37V16.1z"/>
	<path d="M49,9.2c0,0.1-0.1,0.1-0.2,0.1c-0.1,0-0.1,0-0.2-0.1c-0.1-0.1-0.2-0.2-0.3-0.2c-0.1-0.1-0.3-0.2-0.5-0.2S47.3,8.5,47,8.5
		s-0.6,0-0.8,0.1c-0.2,0.1-0.4,0.2-0.6,0.4c-0.2,0.2-0.3,0.3-0.4,0.5s-0.1,0.4-0.1,0.6c0,0.3,0.1,0.5,0.2,0.7
		c0.1,0.2,0.3,0.3,0.5,0.5c0.2,0.1,0.4,0.2,0.7,0.3c0.3,0.1,0.5,0.2,0.8,0.3s0.5,0.2,0.8,0.3c0.3,0.1,0.5,0.2,0.7,0.4
		c0.2,0.2,0.4,0.4,0.5,0.6c0.1,0.2,0.2,0.5,0.2,0.9c0,0.4-0.1,0.7-0.2,1c-0.1,0.3-0.3,0.6-0.5,0.8c-0.2,0.2-0.5,0.4-0.9,0.5
		c-0.3,0.1-0.7,0.2-1.2,0.2c-0.6,0-1-0.1-1.4-0.3s-0.8-0.5-1.1-0.8l0.2-0.3c0-0.1,0.1-0.1,0.2-0.1c0,0,0.1,0,0.1,0.1
		c0.1,0,0.1,0.1,0.2,0.2c0.1,0.1,0.2,0.1,0.3,0.2c0.1,0.1,0.2,0.2,0.4,0.2c0.1,0.1,0.3,0.1,0.5,0.2c0.2,0,0.4,0.1,0.7,0.1
		c0.3,0,0.6-0.1,0.9-0.2c0.3-0.1,0.5-0.2,0.7-0.4c0.2-0.2,0.3-0.4,0.4-0.6c0.1-0.2,0.1-0.5,0.1-0.8c0-0.3-0.1-0.5-0.2-0.7
		c-0.1-0.2-0.3-0.4-0.5-0.5s-0.4-0.2-0.7-0.3c-0.3-0.1-0.5-0.2-0.8-0.3s-0.5-0.2-0.8-0.3c-0.3-0.1-0.5-0.2-0.7-0.4s-0.4-0.4-0.5-0.6
		c-0.1-0.2-0.2-0.5-0.2-0.9c0-0.3,0.1-0.6,0.2-0.8c0.1-0.3,0.3-0.5,0.5-0.7s0.5-0.4,0.8-0.5C46.2,8.1,46.6,8,47,8
		c0.4,0,0.8,0.1,1.2,0.2s0.7,0.4,1,0.6L49,9.2z"/>
	<path d="M57.5,16.6h-0.5c-0.1,0-0.1,0-0.1,0s-0.1-0.1-0.1-0.1l-1-2.5h-4.2l-1,2.5c0,0,0,0.1-0.1,0.1s-0.1,0-0.1,0H50l3.5-8.5h0.6
		L57.5,16.6z M51.9,13.5h3.8l-1.7-4.3c0-0.1-0.1-0.1-0.1-0.2c0-0.1-0.1-0.2-0.1-0.3c0,0.1-0.1,0.2-0.1,0.3c0,0.1-0.1,0.2-0.1,0.2
		L51.9,13.5z"/>
	<path d="M59.5,16.1h4v0.5h-4.6V8.1h0.6V16.1z"/>
	<path d="M71.4,16.6h-0.5c-0.1,0-0.1,0-0.1,0s-0.1-0.1-0.1-0.1l-1-2.5h-4.2l-1,2.5c0,0,0,0.1-0.1,0.1s-0.1,0-0.1,0h-0.5l3.5-8.5h0.6
		L71.4,16.6z M65.7,13.5h3.8l-1.7-4.3c0-0.1-0.1-0.1-0.1-0.2c0-0.1-0.1-0.2-0.1-0.3c0,0.1-0.1,0.2-0.1,0.3c0,0.1-0.1,0.2-0.1,0.2
		L65.7,13.5z"/>
	<path d="M77,14.5c0-0.1,0-0.1,0.1-0.2c0-0.1,0.1-0.1,0.1-0.2l3.3-5.9c0-0.1,0.1-0.1,0.1-0.1c0,0,0.1,0,0.1,0h0.4v8.5h-0.5V9.4
		c0-0.1,0-0.2,0-0.3L77.3,15c-0.1,0.1-0.1,0.2-0.2,0.2h-0.1c-0.1,0-0.2-0.1-0.2-0.2L73.3,9c0,0.1,0,0.2,0,0.3v7.2h-0.5V8.1h0.4
		c0.1,0,0.1,0,0.1,0c0,0,0.1,0,0.1,0.1l3.4,5.9C76.9,14.3,76.9,14.4,77,14.5z"/>
	<path d="M90.1,16.6h-0.5c-0.1,0-0.1,0-0.1,0s-0.1-0.1-0.1-0.1l-1-2.5h-4.2l-1,2.5c0,0,0,0.1-0.1,0.1s-0.1,0-0.1,0h-0.5L86,8.1h0.6
		L90.1,16.6z M84.4,13.5h3.8l-1.7-4.3c0-0.1-0.1-0.1-0.1-0.2c0-0.1-0.1-0.2-0.1-0.3c0,0.1-0.1,0.2-0.1,0.3c0,0.1-0.1,0.2-0.1,0.2
		L84.4,13.5z"/>
	<path d="M91.8,8.2c0,0,0.1,0,0.1,0.1l5.5,7.4c0-0.1,0-0.2,0-0.3V8.1h0.5v8.5h-0.3c-0.1,0-0.2,0-0.2-0.1l-5.5-7.4c0,0.1,0,0.2,0,0.3
		v7.1h-0.5V8.1h0.3C91.8,8.1,91.8,8.1,91.8,8.2z"/>
	<path d="M106.6,15.2c0,0,0.1,0,0.1,0l0.2,0.3c-0.2,0.2-0.4,0.4-0.6,0.5s-0.4,0.3-0.7,0.4c-0.2,0.1-0.5,0.2-0.8,0.2
		c-0.3,0.1-0.6,0.1-1,0.1c-0.6,0-1.1-0.1-1.6-0.3s-0.9-0.5-1.3-0.9c-0.4-0.4-0.6-0.8-0.8-1.4S100,13,100,12.4c0-0.6,0.1-1.2,0.3-1.8
		s0.5-1,0.9-1.4c0.4-0.4,0.8-0.7,1.3-0.9c0.5-0.2,1.1-0.3,1.7-0.3c0.3,0,0.6,0,0.8,0.1s0.5,0.1,0.7,0.2s0.4,0.2,0.6,0.3
		s0.4,0.3,0.6,0.4l-0.2,0.3c0,0-0.1,0.1-0.2,0.1c0,0-0.1,0-0.1-0.1c-0.1,0-0.1-0.1-0.2-0.2c-0.1-0.1-0.2-0.1-0.3-0.2
		s-0.3-0.1-0.4-0.2c-0.2-0.1-0.4-0.1-0.6-0.2c-0.2,0-0.5-0.1-0.8-0.1c-0.5,0-1,0.1-1.4,0.3c-0.4,0.2-0.8,0.4-1.1,0.8
		c-0.3,0.3-0.6,0.7-0.7,1.2s-0.3,1-0.3,1.6c0,0.6,0.1,1.1,0.3,1.6c0.2,0.5,0.4,0.9,0.7,1.2c0.3,0.3,0.7,0.6,1.1,0.8
		c0.4,0.2,0.9,0.3,1.3,0.3c0.3,0,0.6,0,0.8-0.1s0.5-0.1,0.7-0.2s0.4-0.2,0.6-0.3s0.3-0.3,0.5-0.4C106.5,15.2,106.6,15.2,106.6,15.2
		C106.6,15.2,106.6,15.2,106.6,15.2z"/>
	<path d="M115.3,16.6h-0.5c-0.1,0-0.1,0-0.1,0s-0.1-0.1-0.1-0.1l-1-2.5h-4.2l-1,2.5c0,0,0,0.1-0.1,0.1s-0.1,0-0.1,0h-0.5l3.5-8.5
		h0.6L115.3,16.6z M109.6,13.5h3.8l-1.7-4.3c0-0.1-0.1-0.1-0.1-0.2c0-0.1-0.1-0.2-0.1-0.3c0,0.1-0.1,0.2-0.1,0.3
		c0,0.1-0.1,0.2-0.1,0.2L109.6,13.5z"/>
</g>
<g>
	<defs>
		<circle id="SVGID_1_" cx="129.1" cy="11.4" r="11.4"/>
	</defs>
	<clipPath id="SVGID_2_">
		<use xlink:href="#SVGID_1_"  style="overflow:visible;"/>
	</clipPath>
	<g class="st0">
		<path d="M117.7-11.4V18c0,4.9,4,8.9,8.9,8.9h14.8v-38.3H117.7z"/>
		
			<radialGradient id="sphere_1_" cx="377.2639" cy="77.9691" r="12.4386" gradientTransform="matrix(0.8583 0 0 0.8583 -194.9648 -51.4174)" gradientUnits="userSpaceOnUse">
			<stop  offset="0.309" style="stop-color:#FFFFFF"/>
			<stop  offset="1" style="stop-color:#2B2B2B"/>
		</radialGradient>
		<path id="sphere_12_" class="st1" d="M135.5,18c0,4.9-4,8.9-8.9,8.9c-4.9,0-8.9-4-8.9-8.9c0-4.9,4-8.9,8.9-8.9
			C131.5,9.2,135.5,13.1,135.5,18z"/>
		
			<linearGradient id="SVGID_3_" gradientUnits="userSpaceOnUse" x1="204.7661" y1="495.3236" x2="216.5961" y2="495.3239" gradientTransform="matrix(0.9882 0.1534 -0.1534 0.9882 6.2541 -514.7205)">
			<stop  offset="0" style="stop-color:#F78F26"/>
			<stop  offset="5.462309e-02" style="stop-color:#F7912B"/>
			<stop  offset="0.1258" style="stop-color:#F89839"/>
			<stop  offset="0.2061" style="stop-color:#F9A351"/>
			<stop  offset="0.2931" style="stop-color:#FBB370"/>
			<stop  offset="0.3856" style="stop-color:#FDC997"/>
			<stop  offset="0.4812" style="stop-color:#FFE4C9"/>
			<stop  offset="0.5112" style="stop-color:#FFEDDB"/>
			<stop  offset="0.5386" style="stop-color:#FEE2C5"/>
			<stop  offset="0.6013" style="stop-color:#FDCB9A"/>
			<stop  offset="0.6655" style="stop-color:#FBB878"/>
			<stop  offset="0.7303" style="stop-color:#FAA95C"/>
			<stop  offset="0.7955" style="stop-color:#F99D44"/>
			<stop  offset="0.8616" style="stop-color:#F79534"/>
			<stop  offset="0.9291" style="stop-color:#F7912A"/>
			<stop  offset="1" style="stop-color:#F78F26"/>
		</linearGradient>
		<polygon class="st2" points="141.4,26.9 141.4,-11.9 129.7,25.1 		"/>
	</g>
</g>
</svg>
